<svg xmlns="http://www.w3.org/2000/svg" viewBox="0 0 380 520" fill="none" stroke="#6b7c5c" stroke-width="1.2" stroke-linecap="round" stroke-linejoin="round">

  <!-- Main stem: S-curve from bottom-right to top-left -->
  <path d="M 290 520 C 260 430 200 380 180 290 C 160 200 130 150 80 50"/>

  <!-- === MAIN FLOWER (center ~90,65) === -->
  <!-- Petals (13, Fibonacci) -->
  <path d="M 100.0 65.0 C 106.0 68.0 118.0 67.0 122.0 65.0 C 118.0 63.0 106.0 62.0 100.0 65.0"/>
  <path d="M 99.0 69.5 C 103.0 75.0 114.0 80.0 118.5 80.0 C 115.5 76.0 105.5 70.0 99.0 69.5"/>
  <path d="M 95.5 73.0 C 96.5 80.0 104.5 89.0 108.0 91.5 C 107.5 87.0 101.5 76.5 95.5 73.0"/>
  <path d="M 91.0 75.0 C 89.0 81.0 91.5 93.0 94.0 97.0 C 95.5 92.5 95.0 80.5 91.0 75.0"/>
  <path d="M 86.5 74.5 C 81.5 79.0 78.0 90.5 78.5 95.0 C 82.0 92.0 87.0 81.0 86.5 74.5"/>
  <path d="M 82.5 71.5 C 76.0 73.5 67.5 82.0 66.0 86.0 C 70.5 85.0 80.0 78.0 82.5 71.5"/>
  <path d="M 80.5 67.5 C 73.5 66.0 62.5 70.0 59.0 72.5 C 63.5 73.5 75.0 71.5 80.5 67.5"/>
  <path d="M 80.5 62.5 C 75.0 58.5 63.5 56.5 59.0 57.5 C 62.5 60.0 73.5 64.0 80.5 62.5"/>
  <path d="M 82.5 58.5 C 80.0 52.0 70.5 45.0 66.0 44.0 C 67.5 48.0 76.0 56.5 82.5 58.5"/>
  <path d="M 86.5 55.5 C 87.0 49.0 82.0 38.0 78.5 35.0 C 78.0 39.5 81.5 51.0 86.5 55.5"/>
  <path d="M 91.0 55.0 C 95.0 49.5 95.5 37.5 94.0 33.0 C 91.5 37.0 89.0 49.0 91.0 55.0"/>
  <path d="M 95.5 57.0 C 101.5 53.5 107.5 43.0 108.0 38.5 C 104.5 41.0 96.5 50.0 95.5 57.0"/>
  <path d="M 99.0 60.5 C 105.5 60.0 115.5 54.0 118.5 50.0 C 114.0 50.0 103.0 55.0 99.0 60.5"/>
  <!-- Center disk -->
  <circle cx="90" cy="65" r="9" fill="#f5efe6" stroke="#6b7c5c"/>

  <!-- === SECOND FLOWER — opening bud (center ~175,240) === -->
  <!-- Branch from main stem to second flower -->
  <path d="M 178 282 C 178 265 177 252 175 246"/>
  <!-- Petals (10) -->
  <path d="M 182.0 240.0 C 187.0 242.5 194.0 241.5 197.0 240.0 C 194.0 238.5 187.0 237.5 182.0 240.0"/>
  <path d="M 180.5 244.0 C 183.0 249.0 189.5 252.5 193.0 253.0 C 191.5 250.0 186.0 245.0 180.5 244.0"/>
  <path d="M 177.0 246.5 C 176.5 252.0 179.5 258.5 182.0 261.0 C 182.5 257.5 181.0 250.5 177.0 246.5"/>
  <path d="M 173.0 246.5 C 169.0 250.5 167.5 257.5 168.0 261.0 C 170.5 258.5 173.5 252.0 173.0 246.5"/>
  <path d="M 169.5 244.0 C 164.0 245.0 158.5 250.0 157.0 253.0 C 160.5 252.5 167.0 249.0 169.5 244.0"/>
  <path d="M 168.0 240.0 C 163.0 237.5 156.0 238.5 153.0 240.0 C 156.0 241.5 163.0 242.5 168.0 240.0"/>
  <path d="M 169.5 236.0 C 167.0 231.0 160.5 227.5 157.0 227.0 C 158.5 230.0 164.0 235.0 169.5 236.0"/>
  <path d="M 173.0 233.5 C 173.5 228.0 170.5 221.5 168.0 219.0 C 167.5 222.5 169.0 229.5 173.0 233.5"/>
  <path d="M 177.0 233.5 C 181.0 229.5 182.5 222.5 182.0 219.0 C 179.5 221.5 176.5 228.0 177.0 233.5"/>
  <path d="M 180.5 236.0 C 186.0 235.0 191.5 230.0 193.0 227.0 C 189.5 227.5 183.0 231.0 180.5 236.0"/>
  <!-- Center disk -->
  <circle cx="175" cy="240" r="6" fill="#f5efe6" stroke="#6b7c5c"/>

  <!-- === CLOSED BUD (stem at ~219,384) === -->
  <!-- Branch from main stem to bud -->
  <path d="M 219 384 C 228 384 236 386 240 392"/>
  <!-- Bud petals -->
  <path d="M 240 408 C 233 393 233 377 240 367 C 247 377 247 393 240 408"/>
  <!-- Sepal left -->
  <path d="M 235 402 C 224 392 222 378 227 368"/>
  <!-- Sepal right -->
  <path d="M 245 402 C 256 392 258 378 253 368"/>

  <!-- === LEAF PAIRS === -->

  <!-- Leaf pair 1 at y~152 (stem anchor ~131,152) -->
  <!-- Left leaf -->
  <path d="M 131 152 C 112 142 93 136 78 144 C 93 148 112 154 131 158"/>
  <line x1="131" y1="152" x2="78" y2="144" stroke-width="0.8" opacity="0.7"/>
  <!-- Right leaf -->
  <path d="M 135 149 C 154 139 173 134 188 142 C 173 146 154 150 135 157"/>
  <line x1="135" y1="149" x2="188" y2="142" stroke-width="0.8" opacity="0.7"/>

  <!-- Leaf pair 2 at y~282 (stem anchor ~178,282) -->
  <!-- Left leaf -->
  <path d="M 178 282 C 160 272 142 268 128 274 C 142 278 160 284 178 288"/>
  <line x1="178" y1="282" x2="128" y2="274" stroke-width="0.8" opacity="0.7"/>
  <!-- Right leaf -->
  <path d="M 180 279 C 198 268 216 264 230 270 C 216 274 198 280 180 286"/>
  <line x1="180" y1="279" x2="230" y2="270" stroke-width="0.8" opacity="0.7"/>

  <!-- Leaf pair 3 at y~436 (stem anchor ~250,436) -->
  <!-- Left leaf -->
  <path d="M 250 436 C 234 424 216 419 202 426 C 216 430 234 437 250 442"/>
  <line x1="250" y1="436" x2="202" y2="426" stroke-width="0.8" opacity="0.7"/>
  <!-- Right leaf -->
  <path d="M 253 433 C 268 422 286 418 299 424 C 286 428 268 434 253 440"/>
  <line x1="253" y1="433" x2="299" y2="424" stroke-width="0.8" opacity="0.7"/>

</svg>
