<svg xmlns="http://www.w3.org/2000/svg" viewBox="0 0 90 110" fill="none" stroke="#8a9c78" stroke-linecap="round" stroke-linejoin="round">

  <!-- Main stem rising from base -->
  <path d="M 45 108 C 44.5 95 44 82 45 70 C 45.5 62 45 55 45 48"
        stroke-width="1.2"/>

  <!-- Branch left: curves up and to the left to bud -->
  <path d="M 45 68 C 40 62 32 54 22 44"
        stroke-width="1.2"/>

  <!-- Branch right: curves up and to the right to bud -->
  <path d="M 45 58 C 50 51 58 44 68 36"
        stroke-width="1.2"/>

  <!-- Bud center top — straight upward, oval closed bud -->
  <!-- Bud shape: two curves meeting at a pointed tip -->
  <path d="M 45 48 C 39 42 38 32 40 24 C 42 16 45 12 45 10 C 45 12 48 16 50 24 C 52 32 51 42 45 48"
        stroke-width="1"/>

  <!-- Bud left branch — oval closed bud at (22,44) -->
  <path d="M 22 44 C 16 40 14 31 15 23 C 16 15 19 11 22 9 C 25 11 28 15 29 23 C 30 31 28 40 22 44"
        stroke-width="1"/>

  <!-- Bud right branch — oval closed bud at (68,36) -->
  <path d="M 68 36 C 62 32 60 23 61 15 C 62 8 65 4 68 2 C 71 4 74 8 75 15 C 76 23 74 32 68 36"
        stroke-width="1"/>

  <!-- Small leaf on lower-left of main stem -->
  <path d="M 44 88 C 37 82 28 78 24 80 C 29 82 38 86 44 90"
        stroke-width="0.8"/>

  <!-- Small leaf on lower-right of main stem -->
  <path d="M 46 80 C 53 74 62 71 66 73 C 61 75 52 79 46 82"
        stroke-width="0.8"/>

</svg>
