<?xml version="1.0" encoding="utf-8"?>
<!-- Generator: Adobe Illustrator 25.2.3, SVG Export Plug-In . SVG Version: 6.00 Build 0)  -->
<svg version="1.1" id="Ebene_1" xmlns="http://www.w3.org/2000/svg" xmlns:xlink="http://www.w3.org/1999/xlink" x="0px" y="0px"
	 viewBox="0 0 766.1 399.5" style="enable-background:new 0 0 766.1 399.5;" xml:space="preserve">
<style type="text/css">
	.st0{fill-rule:evenodd;clip-rule:evenodd;fill:#353B8F;}
	.st1{fill:#353B8F;}
	.st2{fill:#FBBB21;}
</style>
<g>
	<g>
		<path class="st0" d="M331.9,299.4c-0.5-3.4-3.9-14-4.3-22.7c-0.1-0.9,0-1.8,0-2.9l0,0c0.5-9.8,5.1-25,8.2-28.9
			c3.4-4.3,0.5-8.7,0.5-8.7s-12.6,17.1-15.9,23.6c-1.1,2.3-3.8,7.7-6,14l0,0l0,0c-1.5,4.4-2.8,9.1-3.2,13.5
			c-0.9,10.1-3,31.8-0.6,32.3c0,0,6.1,1.2,7.4,0.5C323.4,317.1,332.4,302.8,331.9,299.4z"/>
		<path class="st0" d="M296.3,100.3c0,0,2.4-3.4-4.3-1.4c-6.7,1.9-106.6,150.4-125,175l0,0c-9.1,12.1-16.8,21.2-19.6,21.7
			c-8.7,1.4-30.1-21.7-44.4-36.6c-3.7-3.9-15.1,0.4-15.7,14.9l0,0c-0.1,1.5,0,3.1,0.3,4.8c2.9,19.3,40,41.9,40,41.9
			s-6.8,8.5-12.1,14.9l0,0c-3.3,4-6,7.2-6.2,7.2c-0.5,0-11.8,17-28.7,23.6l0,0c-0.9,0.3-1.7,0.7-2.6,0.9c-11.7,3.7-21.6,2.2-26.3-1
			c-6.9-4.7-18-18.2-25.8-21.2C11,339.3,6,359,9.2,365.1c0.2,0.4,1.4,2,2.1,3c4.3,5.9,19.2,22.7,38.2,25.6
			c22.2,3.4,42.2-16.9,52.6-27.5c5.1-5.2,23.1-30.9,23.1-30.9c4.9-7.2,9.9-14,12-14c4.4,0,54.3-24,53.5-21.2
			c-1.2,4.5-11.1,54.8-9.6,56.4c0.9,1,10.6-3,12.5-14.9c0.5-2.9,11.4-56.3,32.3-109.1C246,181.7,296.3,100.3,296.3,100.3z
			 M199.4,279.7c-2.3,4.8-36.6,18.3-39.1,17.4c-0.7-0.3,5.4-9.8,14.4-23.1l0,0c21.7-32.3,60.3-86.8,60.3-86.8
			S199.7,278.9,199.4,279.7z"/>
		<path class="st0" d="M333,206.2c1.4-2.5-1.4-11.1-2.2-11.2c-2.6-0.4-9,8-10,2.7c-0.5-2.9,5.2-14.8,10.5-25
			c4.4-8.5,8.6-15.4,8.9-16.2c1-2.5,4.2-6.1-4.9-3.2c-12.1,3.9-28.9,47.5-30.6,49.7c-1.5,1.9-3.1,2-6,1.1c-2.9-1-10.8-6.3-14.8-7
			c-9.3-1.5-7.1,8.9-6.9,18.4c0.2,9.7,6.4,11.2,8.7,11.1c2.3-0.1,14.5-6.3,12.1-1c-1.6,3.6-5.8,29.5-9,48.2l0,0
			c-1.5,8.6-2.8,15.7-3.5,18.3c-1.7,5.8-2.9,28.2-3.7,43.4l0,0c-0.3,6.3-0.5,11.4-0.7,13.5c-0.4,6,0.5,12.9,1.7,17.4
			c0.2,0.9,0.5,1.7,0.7,2.4c0.5,1.2,3.3,0.1,6.4-2.4c1.8-1.5,3.7-3.5,5.2-5.8c4.1-6.2,5.5-14.7,2.9-15.9c-1.5-0.7-2.3-4.1-2.4-9.2
			l0,0c-0.5-12.5,2.3-35.2,4.4-53c0.3-2.7,0.7-5.7,1.2-8.7l0,0c4-24.7,12.8-56.4,12.8-56.4S331.6,208.8,333,206.2z"/>
		<path class="st0" d="M340.6,208.3c0,0,20.8-27.2,22.3-30.6c1.4-3.4,3.4-11.2,3.4-11.2s-18.4,15.3-28.6,38
			C327.6,227.1,340.6,208.3,340.6,208.3z"/>
		<path class="st0" d="M435.8,273.9c0.8-3.3,1.7-5.8,1.7-5.8s9.8-8,17.2-19.9c8.7-14,18-31.7,12.2-34.6s-16.4,7.7-27.5,21.2
			s-14.5,23.6-17.4,34.7c-0.3,1.3-0.7,2.7-1.1,4.3l0,0c-1.4,5.7-2.9,13.2-2.8,19.3c0.1,6.3,2.9,11.1,2.9,11.1s5.8,9.2,18.3,3.9
			s15.8-11.3,19.8-17.4c0.6-1,0.5-5.5-1.4-4.3c-5.7,3.4-15.4,3.4-20.7,0.5C433.9,285.2,434.7,278.8,435.8,273.9L435.8,273.9z
			 M432.7,256c-1-2.8,4.3-15.9,15.9-22.7C460.2,226.6,434.2,260.2,432.7,256z"/>
		<path class="st1" d="M497.4,258.2c0.5-3.9,2.5-19.4,3.1-23.2c0.8-5.2,1.7-10.3,2.6-15.5c0.8-4.8,6.8-31.9,8.9-40.6
			c2-8,12.3-45.9,15.8-56.7c3.3-10.2,7-20.2,10.5-30.3c2.5-7,13.2-33.2,17-34.8c3.4-1.5,7.6-0.3,8.4,3.1c0.4,1.7-0.5,3.2-1.1,4.7
			c-0.5,1.2-5,10.7-6.4,14.4c-4.2,11.2-8.2,22.5-11.9,33.9c-2.8,8.6-5.5,17.3-8.1,26c-3.6,12.1-6.7,24.3-9.7,36.5
			c-2.1,8.5-7.9,37.3-8.7,43.3c-0.7,4.8-1.7,9.6-2.4,14.4c-0.6,4.2-3.5,30.6-3.7,33.4c-0.4,4.8-0.8,9.7-1.2,14.5
			c-0.2,2.2-0.2,4.4-0.3,6.6c-0.5,10.9-0.5,21.8-0.3,32.8c0.1,5.1,2.4,39,2.9,43.9c0.4,3.3,0.4,8.6,2.7,17.6c0.3,1,0.6,2,0.7,3
			c0.3,2.5-1.1,3.6-4,4.1c-2.4,0.4-4.4-0.7-5.8-2.7c-2.4-3.2-3.7-7-4.9-10.8c-1.3-4.4-2.3-8.8-2.9-13.3c-0.5-4-3.9-36.7-3.1-66.6
			C495.8,290,496.8,263.3,497.4,258.2z"/>
		<path class="st1" d="M466.4,321.5c0.1-5.1,6.6-76.9,12-106.2c6.1-32.9,18.6-80.4,20.6-86.5c1.9-5.6,4.1-11,7.8-15.6
			c1.6-1.9,3.3-3.8,5.6-5.2c2-1.2,3.9-1.3,5.7,0.2c1.7,1.5,1.6,3.5,1,5.4c-2.2,7.1-4.6,14-6.9,21.1c-2.7,8.5-14.7,54.3-19.2,83.3
			c-3.6,22.8-11.3,98.7-11.8,102.8c-0.8,6.8-0.9,10.1-4.4,14.4c-2.7,2.5-6.8,1.4-8,0.1C466,332.6,466.4,322.8,466.4,321.5z"/>
		<path class="st1" d="M533.6,19.8c-4.8,7.6-10.1,14.9-15.2,22.4c-4.9,7.1-9.6,14.3-14.2,21.6c-4.8,7.6-9.6,15.3-14.1,23.1
			c-4.5,7.7-9,15.5-13.2,23.4c-2.8,5.1-5.4,10.2-8.1,15.3c-2.9,5.4-5.6,10.9-8.3,16.4c-4.5,9.3-8.9,18.7-13.1,28.2
			c-4.5,10.1-8.7,20.3-12.7,30.6c-3.2,8.2-6.2,16.4-9.1,24.7c-2.5,7.4-5,14.7-7.4,22.2c-3.9,12.3-7.5,24.6-10.8,37.1
			c-2.8,10.5-5.1,21.2-8.3,31.6c-2.5,8-5.2,16-8.1,23.8c-1.2,3.3-3.1,6.3-7,7s-8.2-1.7-8.7-6.2c-0.4-3.8,0.8-7.2,1.4-10.8
			c0.5-2.8,0.9-5.7,1.1-8.5c0.1-11,0-20.5,0.4-30.8c0.1-4,0.5-8,1.7-11.9c0.1-0.5,0.5-1.8,0.3-2c-0.1,0.1-0.3,0.2-0.4,0.3
			c-4.2,4.9-8,10.2-11.4,15.7c-2.6,4.1-4.9,8.4-7.2,12.6c-2.2,4.1-4.4,8.3-6.4,12.5c-3.9,8.3-7.8,16.5-12.1,24.6
			c-4.6,8.8-9.6,17.2-15.8,25c-2.3,3-4,5.3-6.3,8.2c-0.6,0.8-2.1,0.8-2.2,0c-0.5-2.6-0.6-5.3-0.2-7.9c0.7-4.6,3-8.6,4.8-12.9
			c2.7-6.7,5.6-13.4,8.3-20.1c2.5-6.2,4.9-12.3,7.3-18.5c2.1-5.4,4.1-10.8,6.1-16.3c3-8.1,5.9-16.3,8.6-24.6
			c3.9-12.2,7.6-24.4,10.8-36.8c2.3-9.1,4.4-18.3,6.3-27.5c1.2-5.8,2.2-11.6,3.1-17.5c0.6-3.6,0.8-7.2,1.3-10.8
			c0.8-6.3,1-12.7,1.3-19c0.3-5.7,0.3-11.4,0.2-17c-0.1-4.7-0.3-9.4-0.6-14c-0.3-5.1-0.7-10.2-1.2-15.3c-0.5-5.6-1.2-11.3-1.6-16.9
			c-0.3-4.6-0.3-9.1,1-13.5c1.8-6.3,9.3-9.1,14.6-7.1c2.8,1.1,4.1,3.5,5.1,6.1c1.6,4.4,2.6,8.9,3.2,13.6c0.7,5.5,1,11.1,0.8,16.6
			s-0.5,11-0.9,16.4c-0.3,3.8-0.5,7.6-0.9,11.4c-0.5,4.8-0.9,9.6-1.4,14.3c-0.4,3.3-0.7,6.5-1.1,9.8c-0.5,4.3-1,8.6-1.7,12.9
			c-0.6,3.7-1,7.4-1.6,11.1c-0.7,4-1.3,7.9-2.1,11.9c-0.9,4.9-1.9,9.7-2.9,14.6c-1.3,6.5-2.9,12.9-4.5,19.3
			c-1.9,7.4-4,14.7-6.1,22.1c1.9-2.8,3.8-5.6,5.6-8.5c3.3-5.1,6.5-10.2,9.8-15.3c2.7-4.2,5.3-8.3,8-12.5c0.2-0.3,0.4-0.7,0.8-0.6
			s0.3,0.5,0.3,0.8c0.7,7.9,1.1,15.8,0.8,23.7c-0.1,3.5-0.3,7-0.9,10.4c-0.1,0.3,0,0.6,0,1.3c1.6-4.4,3.1-8.5,4.6-12.5
			c3.2-8.5,6.4-17,9.6-25.5c2.7-7,5.4-14,8.3-20.9c2.5-6.1,5.3-12.2,7.9-18.3c3.8-8.9,7.9-17.7,12.1-26.5c3.5-7.4,7.2-14.8,11-22.1
			c3.3-6.3,6.7-12.6,10.2-18.8c4.6-8.2,9.4-16.3,14.4-24.3c3.6-5.8,7.3-11.6,11.2-17.3c6-8.9,12.2-17.6,18.7-26.1
			c4.4-5.7,8.9-11.4,13.5-16.9c3.1-3.7,6.2-7.4,9.4-11c3-3.4,6.1-6.7,9.1-10.1c1.2-1.3,2.6-2.6,3.7-4.1
			C542.7,5.2,536.7,14.9,533.6,19.8z"/>
		<path class="st1" d="M283.2,240.9c-0.7-3.2-5.7-5.9-8.3-6.1c-4.1-0.2-7.1,2-9.8,4.6c-6,5.7-11.8,11.5-17.7,17.3
			c-0.2,0.2-0.3,0.3-0.5,0.5c6.3-29.1,16.6-56.4,34.2-80.6c-2.2,0.6-4,1.9-5.8,3c-4.9,3.1-9.2,6.9-13,11.4c-3.3,3.9-6.3,8-8.7,12.5
			c-4.6,8.9-8.7,18-12.6,27.3c-4,9.5-18.1,48.3-21.1,58.1c-2.3,7.5-4.7,15.1-7.1,22.6c-2.3,7.3-4.7,14.5-6.6,22
			c-0.9,3.7-2.3,7.4-1.8,11.3c0.3,2,1.8,3.8,3.8,4.4c2.1,0.6,4.2-0.1,5.4-1.9c0.6-0.9,1-1.8,1.6-2.7c3-4.8,6.2-9.6,9-14.6
			c1-1.8,1-1.7,2.6-0.5c0.6,0.4,1.2,0.8,1.8,1.1c6.4,3.9,13.3,6,20.9,4.7c8.5-1.4,13.7-6.7,16-14.9c0.8-2.6-0.2-5.4-2.1-6.3
			c-1.5-0.8-3.2-1.2-4.9-1.2c-2.7-0.2-5.4-0.4-8.1-0.9c-7.5-1.6-9.7-9.8-6.7-14.7c1.3-2.2,3.2-4,5.3-5.3c5.8-3.7,11.1-7.9,15.5-13.2
			c4.2-5,7.6-10.6,10.6-16.4c2.5-4.7,4.8-9.5,7-14.3C283.1,245.7,283.7,243.4,283.2,240.9z M259.1,269.3c-1.1,3.3-2.8,6.2-5.3,8.7
			c-5.1,5-11.4,8.1-17.1,12.3c2.8-10.7,7.9-19.7,16.8-26.3c1.1-0.8,2.3-1.5,3.8-1.3c1.1,0.1,1.8,0.6,2,1.7
			C259.7,265.9,259.6,267.6,259.1,269.3z"/>
	</g>
	<g>
		<g>
			<path class="st2" d="M701.1,380.3c0-1.6,0-2.9,0-4.2c-0.3-10.8-2.4-21.1-7-30.9c-3.7-7.9-8.5-15.1-13.9-21.8
				c-3.9-4.8-8-9.3-12.2-13.8c-4.5-4.8-15.9-18.6-14.3-28.4c0.3-2,2.8-5.5,4.5-6.4c3.6-1.8,7.3-0.5,9.4,2.4c3.5,5,7.2,9.7,11.1,14.4
				c5.7,6.9,11.7,13.7,17,21c5.5,7.5,10.1,15.5,13,24.4c1.4,4.5,2.3,9.1,2.8,13.9c0.6,5.5,0.3,10.9-1.4,16.1
				C708.4,371.7,706.1,375.9,701.1,380.3z"/>
		</g>
		<path class="st2" d="M757.1,152.4c2,1.1,2.7,14.2-33.4,47.1c-6,5.5-33.4,22.1-39.4,25.1c-4,2-7.8,4.1-9,8.7
			c-1.1,4.3-2.3,8.6-4,12.8c-1.9,4.6-4.2,8.9-6.8,13.1c-3.9,6.2-8.4,11.9-13.3,17.3c-3.5,3.9-20.9,22.7-25.5,28.7
			c-5.3,7-10.2,14.3-14.6,21.9c-4.6,8-8.6,16.2-12.2,24.6c-2.7,6.4-5.4,12.8-7.6,19.3c-0.7,2.1-0.9,4.4-2,6.5c-1,2-2.7,3-4.3,2.6
			c-3.7-0.8-4.3-2.5-4.4-4.6c-0.2-4.8,0.3-9.6,0.5-14.4c0.4-7.4,1.8-14.7,3.7-21.9c1.4-5.3,3.3-10.5,5.5-15.6
			c4-9.5,9.1-18.5,14.6-27.3c4.8-7.6,22.1-30.2,25.4-34.3c3.5-4.3,7-8.7,10.5-12.9c1.2-1.5,6.4-7.2,5.8-9.2
			c-0.7-2.1-3.1-3.6-5.3-3.7c-3.8-0.2-7.2,1.1-10.8,2.1c-5.4,1.5-10.8,3.2-16.1,5.1c-5.6,2-11.1,4.1-16.5,6.6
			c-7.3,3.4-26.4,15.8-29,17.8c-1.5,1.2-3.3,1.4-5.2,1.3c-1.6-0.2-3.8-3.1-4-4.9c-0.3-3,0.9-5.5,2.7-7.7c4.1-4.9,7.9-10,12.5-14.4
			c5.9-5.7,12.4-10.6,19.5-14.6s14.5-7.3,22.2-9.8c8-2.6,16.1-4.6,24.3-6.3c4.6-0.9,9.1-2.5,12.6-5.8c2.3-2.2,3.8-5,4.2-8
			c0.7-5,1.3-10.1,1.5-15.1c0.2-4-1.4-7.5-4.3-10.3c-2.9-2.8-5.8-5.5-7.5-9.3c-1.6-3.7-2.6-7.5-3-11.5c-0.2-2.3-0.3-4.5-0.2-6.7
			c0.3-7.3,1.8-14.3,4.6-21c2.6-6.2,5.9-12,10.9-16.6c3.9-3.6,8.5-5.7,13.6-6.8c4-0.9,8-0.8,12.1-0.5c5.7,0.4,11.1,1.7,15.3,6
			c2.7,2.7,4.1,6.1,4.6,9.8c0.8,5.7,1.2,11.4,0.9,17.1c-0.3,8.1-1.8,16.1-5.6,23.3c-4,7.5-9.8,13.3-17.2,17.6
			c-2.3,1.3-4.7,2.3-6.6,4.2c-3.4,3.2-3.9,6.1-1.6,10.8c1.6,3.3,3,7.2,4.3,10.8c0.7,2,2.2,2.7,4.6,1.9c2.5-0.8,12.5-6.2,15.2-7.7
			c7.1-3.8,13.8-8.3,20.4-13C724.4,177.1,754.5,151,757.1,152.4z"/>
	</g>
</g>
</svg>
